<svg width="2000" height="2344.425" viewBox="0 0 529.167 620.296" xml:space="preserve" xmlns="http://www.w3.org/2000/svg"><g style="display:inline;opacity:1"><path style="display:inline;fill:#e7fcff;fill-opacity:1;stroke-width:.264583" d="m102.307-101.417-.197 31.504-206.712 118.917-57.675-34.206v-116.215Z" transform="translate(162.277 101.417)"/><path style="display:inline;fill:#6e77a0;fill-opacity:1;stroke-width:.264583" d="M308.109 44.047 366.89 10.58v-111.998H102.307l-.197 31.504z" transform="translate(162.277 101.417)"/><path style="display:inline;fill:#404d87;fill-opacity:1;stroke-width:.274857" d="m366.89 10.58-63.435 33.467-5.75 235.477 69.185 32.274z" transform="translate(162.277 101.417)"/><path style="display:inline;fill:#171e41;fill-opacity:1;stroke-width:.265;stroke-dasharray:none" d="M366.89 311.798v116.216H102.307l-.197-22.815 200.67-125.675z" transform="translate(162.277 101.417)"/><path style="display:inline;fill:#5cab7e;fill-opacity:1;stroke-width:.264583" d="M-107.547 279.524 102.11 405.199l.197 22.815h-264.584V311.798Z" transform="translate(162.277 101.417)"/><path style="display:inline;fill:#61b09a;fill-opacity:1;stroke-width:.283766" d="m-162.277 14.798 66.342 34.206-3.388 230.52-62.954 32.274z" transform="translate(162.277 101.417)"/><path style="display:inline;fill:#61b09a;stroke-width:.261105" d="M336.18 176.316A233.433 233.433 0 0 1 102.748 409.75a233.433 233.433 0 0 1-233.433-233.433A233.433 233.433 0 0 1 102.748-57.117 233.433 233.433 0 0 1 336.18 176.316Z" transform="translate(162.277 101.417)"/><path style="display:inline;stroke-width:.264583" d="M338.651 163.298A236.542 236.542 0 0 1 102.11 399.84a236.542 236.542 0 0 1-236.542-236.542A236.542 236.542 0 0 1 102.11-73.243 236.542 236.542 0 0 1 338.65 163.298z" transform="translate(162.277 101.417)"/></g><g style="font-variation-settings:normal;display:inline;opacity:1;vector-effect:none;fill:#fff;fill-opacity:1;stroke:#61b09a;stroke-width:5;stroke-linecap:butt;stroke-linejoin:miter;stroke-miterlimit:4;stroke-dasharray:none;stroke-dashoffset:0;stroke-opacity:1;-inkscape-stroke:none;stop-color:#000;stop-opacity:1"><path style="font-variation-settings:normal;vector-effect:none;fill:#fff;fill-opacity:1;stroke:#61b09a;stroke-width:5;stroke-linecap:butt;stroke-linejoin:miter;stroke-miterlimit:4;stroke-dasharray:none;stroke-dashoffset:0;stroke-opacity:1;-inkscape-stroke:none;stop-color:#000" d="M50.546 30.066c-6.953.162-13.77 1.834-20.145 5.512-16.943 9.79-23.173 29.388-23.877 49.079a13.828 13.828 0 0 0 27.638.976c.571-16.078 5.44-23.431 10.066-26.107v-.02c4.647-2.654 13.497-3.189 27.749 4.426a13.833 13.832 0 0 0 13.017-24.41c-10.901-5.806-22.861-9.727-34.448-9.456Zm105.98.005c-4.5.037-9.022.679-13.454 1.784-11.745 2.932-23.728 9.292-35.27 17.792-23.121 17.036-46.685 44.285-65.86 77.509-8.905 15.413-16.188 30.937-21.755 45.963a13.828 13.828 0 0 0 8.148 17.773l.003-.003a13.828 13.828 0 0 0 17.774-8.149 275.18 275.171 0 0 1 19.784-41.76c17.718-30.715 38.92-54.794 58.317-69.064 9.717-7.155 18.419-11.447 25.573-13.238 7.043-1.77 11.67-.899 14.695.85 3.612 2.084 7.375 6.896 9.145 16.962 1.77 10.03 1.178 23.563-2.341 39.64a13.828 13.828 0 1 0 26.992 5.916c4.014-18.234 5.178-35.602 2.578-50.333-2.58-14.695-9.292-28.485-22.567-36.137-6.834-3.95-14.265-5.567-21.763-5.505zm-28.043 50.295a13.828 13.828 0 0 0-10.117 3.109l.022.047a13.828 13.828 0 0 0-1.847 19.47 276.452 276.443 0 0 1 26.273 37.96c17.755 30.717 27.985 61.1 30.661 85.05 1.352 11.984.704 21.682-1.324 28.762-1.992 6.988-5.051 10.549-8.076 12.298-3.613 2.118-9.66 2.947-19.285-.558-9.55-3.466-20.963-10.73-33.132-21.83a13.828 13.828 0 0 0-18.64 20.429c13.791 12.592 28.265 22.268 42.314 27.397 13.994 5.1 29.316 6.174 42.572-1.477 10.951-6.325 17.48-16.926 20.853-28.633 3.317-11.634 3.798-25.203 2.21-39.455-3.19-28.54-15.01-62.575-34.184-95.798a303.481 303.472 0 0 0-28.947-41.816 13.828 13.828 0 0 0-9.353-4.955ZM25.057 105.968a13.831 13.83 0 0 0-5.35.574c-17.793 5.642-33.427 13.33-44.895 22.936-11.413 9.587-20.005 22.308-20.005 37.611 0 12.63 5.9 23.618 14.4 32.357 8.407 8.702 19.894 15.91 33.04 21.645 5.582 2.445 11.595 4.66 17.937 6.658A13.828 13.828 0 0 0 6.93 241.794c.646 19.764 6.878 39.437 23.878 49.264 16.943 9.769 37.04 5.363 54.445-3.874a13.832 13.832 0 1 0-12.98-24.43c-14.197 7.54-23.024 7.011-27.638 4.335v.003c-4.645-2.673-9.51-10.085-10.067-26.217a13.828 13.828 0 0 0-6.632-10.844c21.915 5.993 47.406 9.35 74.372 9.35a305.325 305.316 0 0 0 50.685-4.132 13.828 13.828 0 0 0 11.32-15.948l.002.003a13.828 13.828 0 0 0-15.949-11.32c-14.215 2.417-29.74 3.741-46.056 3.741-35.474 0-66.91-6.305-88.98-15.967-11.044-4.83-19.117-10.234-24.245-15.523-5.053-5.218-6.62-9.64-6.62-13.145 0-4.185 2.286-9.845 10.14-16.41 7.78-6.545 19.802-12.797 35.474-17.773a13.831 13.83 0 0 0-3.02-26.939zm189.132 13.985a13.836 13.836 0 0 0-9.61 25.379c13.627 8.499 17.571 16.41 17.571 21.755 0 5.347-3.964 13.275-17.681 21.829a13.828 13.828 0 0 0 14.62 23.47c16.779-10.453 30.718-25.683 30.718-45.3 0-19.58-13.865-34.771-30.57-45.225a13.836 13.836 0 0 0-5.048-1.908zM102.282 139.61a25.075 25.074 0 0 0-23.206 24.897 25.075 25.074 0 1 0 50.15 0 25.075 25.074 0 0 0-26.944-24.897z" transform="translate(162.277 101.417)"/><path d="M-7.495 441.755q14.076 0 20.743 5.398 6.774 5.292 6.774 16.087 0 6.032-2.223 10.054-2.222 4.021-5.715 6.455-3.386 2.329-7.196 3.705L25.63 517.32H14.518L-3.79 486.1h-15.028v31.22h-9.525v-75.565zm-.529 8.255h-10.795v28.046h11.324q9.208 0 13.44-3.598 4.234-3.704 4.234-10.795 0-7.408-4.445-10.478-4.445-3.175-13.758-3.175zm66.146 9.525q7.302 0 12.488 3.175 5.292 3.175 8.043 8.996 2.858 5.715 2.858 13.441v5.61H42.67q.212 9.63 4.868 14.71 4.763 4.974 13.23 4.974 5.397 0 9.524-.952 4.234-1.059 8.679-2.964v8.15q-4.34 1.904-8.573 2.751-4.233.953-10.054.953-8.043 0-14.287-3.281-6.139-3.281-9.631-9.737-3.387-6.562-3.387-15.98 0-9.314 3.07-15.981 3.174-6.668 8.783-10.266 5.715-3.599 13.23-3.599zm-.106 7.62q-6.668 0-10.584 4.34-3.81 4.233-4.55 11.853h28.892q-.106-7.197-3.387-11.642-3.28-4.55-10.371-4.55zm59.372-7.514q10.372 0 15.346 4.551 4.974 4.55 4.974 14.5v38.628h-6.773l-1.8-8.043h-.423q-3.704 4.657-7.832 6.879-4.021 2.223-11.218 2.223-7.726 0-12.806-4.022-5.08-4.128-5.08-12.806 0-8.467 6.668-13.017 6.667-4.657 20.531-5.08l9.631-.318v-3.387q0-7.09-3.069-9.842-3.07-2.752-8.678-2.752-4.445 0-8.467 1.376-4.022 1.27-7.514 2.964l-2.857-6.985q3.704-2.011 8.784-3.387 5.08-1.482 10.583-1.482zm2.752 30.268q-10.584.424-14.711 3.387-4.022 2.963-4.022 8.36 0 4.763 2.858 6.986 2.963 2.222 7.514 2.222 7.196 0 11.959-3.915 4.762-4.022 4.762-12.277v-5.08zm57.89 28.47q-7.514 0-13.44-3.07-5.821-3.069-9.208-9.525-3.28-6.455-3.28-16.51 0-10.477 3.492-17.039 3.492-6.561 9.419-9.63 6.032-3.07 13.652-3.07 4.34 0 8.361.953 4.022.847 6.562 2.117l-2.858 7.725q-2.54-.952-5.926-1.799-3.387-.846-6.35-.846-16.722 0-16.722 21.484 0 10.265 4.022 15.769 4.127 5.397 12.17 5.397 4.657 0 8.15-.952 3.598-.953 6.561-2.329v8.255q-2.857 1.482-6.35 2.223-3.386.847-8.255.847zm46.99-7.62q2.117 0 4.34-.318 2.222-.423 3.598-.847v7.091q-1.482.741-4.234 1.164-2.751.53-5.291.53-4.445 0-8.255-1.482-3.704-1.588-6.033-5.398-2.328-3.81-2.328-10.689v-33.02h-8.043v-4.445l8.149-3.704 3.704-12.065h5.503v13.018h16.404v7.196H216.13V500.6q0 5.185 2.434 7.725 2.54 2.435 6.456 2.435z" style="font-size:105.833px;line-height:1.2;font-family:System-ui;-inkscape-font-specification:System-ui;text-align:center;text-anchor:middle;stroke-width:1" aria-label="React" transform="translate(162.277 101.417)"/></g></svg>