<svg width="2000" height="2344.425" viewBox="0 0 529.167 620.296" xml:space="preserve" xmlns="http://www.w3.org/2000/svg"><g style="display:inline;opacity:1"><path style="display:inline;fill:#e7fcff;fill-opacity:1;stroke-width:.264583" d="m102.307-101.417-.197 31.504-206.712 118.917-57.675-34.206v-116.215Z" transform="translate(162.277 101.417)"/><path style="display:inline;fill:#6e77a0;fill-opacity:1;stroke-width:.264583" d="M308.109 44.047 366.89 10.58v-111.998H102.307l-.197 31.504z" transform="translate(162.277 101.417)"/><path style="display:inline;fill:#404d87;fill-opacity:1;stroke-width:.274857" d="m366.89 10.58-63.435 33.467-5.75 235.477 69.185 32.274z" transform="translate(162.277 101.417)"/><path style="display:inline;fill:#171e41;fill-opacity:1;stroke-width:.265;stroke-dasharray:none" d="M366.89 311.798v116.216H102.307l-.197-22.815 200.67-125.675z" transform="translate(162.277 101.417)"/><path style="display:inline;fill:#5cab7e;fill-opacity:1;stroke-width:.264583" d="M-107.547 279.524 102.11 405.199l.197 22.815h-264.584V311.798Z" transform="translate(162.277 101.417)"/><path style="display:inline;fill:#61b09a;fill-opacity:1;stroke-width:.283766" d="m-162.277 14.798 66.342 34.206-3.388 230.52-62.954 32.274z" transform="translate(162.277 101.417)"/><path style="display:inline;fill:#61b09a;stroke-width:.261105" d="M336.18 176.316A233.433 233.433 0 0 1 102.748 409.75a233.433 233.433 0 0 1-233.433-233.433A233.433 233.433 0 0 1 102.748-57.117 233.433 233.433 0 0 1 336.18 176.316Z" transform="translate(162.277 101.417)"/><path style="display:inline;stroke-width:.264583" d="M338.651 163.298A236.542 236.542 0 0 1 102.11 399.84a236.542 236.542 0 0 1-236.542-236.542A236.542 236.542 0 0 1 102.11-73.243 236.542 236.542 0 0 1 338.65 163.298z" transform="translate(162.277 101.417)"/></g><g style="display:inline"><path fill="currentColor" d="m-44.962-.398 25.821 291.844L102.31 326.89l122.204-35.429L249.583-.398ZM172.674 240.52l-70.25 19.702h-.123L31.987 240.52l-4.861-51.827H61.62l2.455 24.972 38.21 10.457 38.29-10.473 4.008-49.912H25.62l-3.061-32.826h125.018l2.845-32.828H19.235l-2.882-32.827h171.916Z" style="font-variation-settings:normal;opacity:1;vector-effect:none;fill:#fff;fill-opacity:1;stroke:#61b09a;stroke-width:5;stroke-linecap:butt;stroke-linejoin:miter;stroke-miterlimit:4;stroke-dasharray:none;stroke-dashoffset:0;stroke-opacity:1;-inkscape-stroke:none;stop-color:#000;stop-opacity:1" transform="translate(162.277 101.417)"/><path d="M52.671 449.058q-12.17 0-19.156 8.149-6.985 8.15-6.985 22.33 0 14.077 6.456 22.332 6.562 8.149 19.58 8.149 4.973 0 9.418-.847 4.445-.847 8.679-2.117v8.255q-4.234 1.588-8.784 2.329-4.445.74-10.69.74-11.535 0-19.261-4.762-7.726-4.762-11.642-13.547-3.81-8.784-3.81-20.637 0-11.43 4.128-20.108 4.233-8.784 12.382-13.653 8.15-4.974 19.791-4.974 11.96 0 20.85 4.445l-3.81 8.043q-3.493-1.587-7.833-2.857-4.233-1.27-9.313-1.27zm77.364 48.048q0 10.054-7.302 15.663-7.303 5.61-19.685 5.61-6.35 0-11.748-.953-5.397-.952-8.996-2.646v-9.101q3.81 1.693 9.42 3.069 5.715 1.376 11.747 1.376 8.467 0 12.7-3.281 4.34-3.281 4.34-8.89 0-3.704-1.588-6.244-1.588-2.54-5.504-4.657-3.81-2.223-10.689-4.657-9.63-3.492-14.605-8.572-4.868-5.08-4.868-13.864 0-6.033 3.069-10.266 3.07-4.34 8.467-6.668 5.503-2.328 12.594-2.328 6.244 0 11.43 1.164t9.419 3.07l-2.963 8.149q-3.916-1.694-8.573-2.858-4.55-1.164-9.525-1.164-7.09 0-10.689 3.07-3.598 2.962-3.598 7.937 0 3.81 1.587 6.35 1.588 2.54 5.186 4.55 3.598 2.011 9.737 4.34 6.667 2.434 11.218 5.291 4.657 2.752 6.985 6.668 2.434 3.915 2.434 9.842zm58.102 0q0 10.054-7.302 15.663-7.303 5.61-19.685 5.61-6.35 0-11.748-.953-5.397-.952-8.995-2.646v-9.101q3.81 1.693 9.419 3.069 5.715 1.376 11.747 1.376 8.467 0 12.7-3.281 4.34-3.281 4.34-8.89 0-3.704-1.588-6.244-1.588-2.54-5.503-4.657-3.81-2.223-10.69-4.657-9.63-3.492-14.604-8.572-4.869-5.08-4.869-13.864 0-6.033 3.07-10.266 3.069-4.34 8.466-6.668 5.503-2.328 12.594-2.328 6.244 0 11.43 1.164t9.42 3.07l-2.964 8.149q-3.916-1.694-8.573-2.858-4.55-1.164-9.525-1.164-7.09 0-10.689 3.07-3.598 2.962-3.598 7.937 0 3.81 1.587 6.35 1.588 2.54 5.186 4.55 3.599 2.011 9.737 4.34 6.667 2.434 11.218 5.291 4.657 2.752 6.985 6.668 2.434 3.915 2.434 9.842z" style="font-size:105.833px;line-height:1.2;font-family:System-ui;-inkscape-font-specification:System-ui;text-align:center;text-anchor:middle;display:inline;fill:#fff;stroke:#61b09a" aria-label="CSS" transform="translate(162.277 101.417)"/></g></svg>