<svg width="2000" height="2436.424" viewBox="0 0 529.167 644.637" xml:space="preserve" xmlns="http://www.w3.org/2000/svg"><g style="display:inline;opacity:1"><path style="display:inline;fill:#e7fcff;fill-opacity:1;stroke-width:.264583" d="m102.307-101.417-.197 31.504-206.712 118.917-57.675-34.206v-116.215Z" transform="translate(162.277 101.417)"/><path style="display:inline;fill:#6e77a0;fill-opacity:1;stroke-width:.264583" d="M308.109 44.047 366.89 10.58v-111.998H102.307l-.197 31.504z" transform="translate(162.277 101.417)"/><path style="display:inline;fill:#404d87;fill-opacity:1;stroke-width:.274857" d="m366.89 10.58-63.435 33.467-5.75 235.477 69.185 32.274z" transform="translate(162.277 101.417)"/><path style="display:inline;fill:#171e41;fill-opacity:1;stroke-width:.265;stroke-dasharray:none" d="M366.89 311.798v116.216H102.307l-.197-22.815 200.67-125.675z" transform="translate(162.277 101.417)"/><path style="display:inline;fill:#5cab7e;fill-opacity:1;stroke-width:.264583" d="M-107.547 279.524 102.11 405.199l.197 22.815h-264.584V311.798Z" transform="translate(162.277 101.417)"/><path style="display:inline;fill:#61b09a;fill-opacity:1;stroke-width:.283766" d="m-162.277 14.798 66.342 34.206-3.388 230.52-62.954 32.274z" transform="translate(162.277 101.417)"/><path style="display:inline;fill:#61b09a;stroke-width:.261105" d="M336.18 176.316A233.433 233.433 0 0 1 102.748 409.75a233.433 233.433 0 0 1-233.433-233.433A233.433 233.433 0 0 1 102.748-57.117 233.433 233.433 0 0 1 336.18 176.316Z" transform="translate(162.277 101.417)"/><path style="display:inline;stroke-width:.264583" d="M338.651 163.298A236.542 236.542 0 0 1 102.11 399.84a236.542 236.542 0 0 1-236.542-236.542A236.542 236.542 0 0 1 102.11-73.243 236.542 236.542 0 0 1 338.65 163.298z" transform="translate(162.277 101.417)"/></g><g style="display:inline"><path fill="currentColor" d="M245.163 13.292H-40.574A7.138 7.138 0 0 0-47.7 20.43v285.737a7.125 7.125 0 0 0 7.137 7.138h285.738a7.138 7.138 0 0 0 7.137-7.138V20.417a7.138 7.138 0 0 0-7.15-7.125M130.876 173.617H95.163v111.1H66.588v-111.1H30.876v-24.612h100zm8 104.75V248.68s16.225 12.225 35.687 12.225c19.463 0 18.713-12.725 18.713-14.475 0-18.463-55.15-18.463-55.15-59.388 0-55.65 80.362-33.687 80.362-33.687l-1 26.45s-13.475-8.988-28.7-8.988-20.712 7.25-20.712 14.975c0 19.963 55.65 17.975 55.65 58.15 0 61.875-84.85 34.438-84.85 34.438" style="font-variation-settings:normal;display:inline;vector-effect:none;fill:#fff;fill-opacity:1;stroke:#61b09a;stroke-width:5;stroke-linecap:butt;stroke-linejoin:miter;stroke-miterlimit:4;stroke-dasharray:none;stroke-dashoffset:0;stroke-opacity:1;-inkscape-stroke:none;stop-color:#000" transform="translate(162.277 101.417)"/><path d="M-122.218 517.32h-9.525v-67.204h-23.6v-8.36h56.62v8.36h-23.495zm22.648-56.726h9.949l12.276 32.279q1.588 4.233 2.858 8.149 1.27 3.81 1.905 7.302h.423q.635-2.645 2.011-6.879 1.376-4.339 2.858-8.678l11.535-32.173H-45.7l-24.447 64.558q-2.963 8.043-7.726 12.806-4.656 4.762-12.911 4.762-2.54 0-4.445-.317-1.905-.212-3.281-.53v-7.408q1.164.212 2.751.423 1.694.212 3.493.212 4.868 0 7.832-2.752 3.069-2.751 4.762-7.302l2.963-7.514zm89.853-1.059q10.477 0 16.827 7.303 6.456 7.302 6.456 22.013 0 14.5-6.456 22.013-6.35 7.515-16.933 7.515-6.562 0-10.9-2.435-4.234-2.54-6.668-5.82h-.635q.211 1.799.423 4.55.212 2.752.212 4.763v23.283h-9.314v-82.126h7.62l1.27 7.726h.424q2.54-3.705 6.667-6.245 4.128-2.54 11.007-2.54zm-1.694 7.832q-8.678 0-12.276 4.868-3.493 4.869-3.704 14.817v1.8q0 10.477 3.386 16.192 3.493 5.609 12.806 5.609 5.186 0 8.467-2.858 3.386-2.857 4.974-7.726 1.693-4.974 1.693-11.324 0-9.736-3.81-15.557-3.704-5.821-11.536-5.821zm61.701-7.832q7.302 0 12.488 3.175 5.292 3.175 8.044 8.996 2.857 5.715 2.857 13.441v5.61H34.84q.211 9.63 4.868 14.71 4.762 4.974 13.229 4.974 5.397 0 9.525-.952 4.233-1.059 8.678-2.964v8.15q-4.34 1.904-8.572 2.751-4.234.953-10.055.953-8.043 0-14.287-3.281-6.138-3.281-9.63-9.737-3.387-6.562-3.387-15.98 0-9.314 3.069-15.981 3.175-6.668 8.784-10.266 5.715-3.599 13.229-3.599zm-.106 7.62q-6.667 0-10.583 4.34-3.81 4.233-4.551 11.853h28.892q-.105-7.197-3.386-11.642-3.281-4.55-10.372-4.55zm82.02 29.951q0 10.054-7.302 15.663-7.302 5.61-19.685 5.61-6.35 0-11.747-.953-5.398-.952-8.996-2.646v-9.101q3.81 1.693 9.42 3.069 5.714 1.376 11.747 1.376 8.466 0 12.7-3.281 4.339-3.281 4.339-8.89 0-3.704-1.588-6.244-1.587-2.54-5.503-4.657-3.81-2.223-10.69-4.657-9.63-3.492-14.604-8.572-4.869-5.08-4.869-13.864 0-6.033 3.07-10.266 3.069-4.34 8.466-6.668 5.504-2.328 12.594-2.328 6.245 0 11.43 1.164 5.186 1.164 9.42 3.07l-2.964 8.149q-3.916-1.694-8.572-2.858-4.551-1.164-9.525-1.164-7.091 0-10.69 3.07-3.598 2.962-3.598 7.937 0 3.81 1.588 6.35 1.587 2.54 5.186 4.55 3.598 2.011 9.736 4.34 6.668 2.434 11.219 5.291 4.656 2.752 6.984 6.668 2.435 3.915 2.435 9.842zm36.725 21.273q-7.514 0-13.441-3.07-5.82-3.069-9.208-9.525-3.28-6.455-3.28-16.51 0-10.477 3.492-17.039 3.493-6.561 9.42-9.63 6.032-3.07 13.652-3.07 4.339 0 8.36.953 4.022.847 6.562 2.117l-2.857 7.725q-2.54-.952-5.927-1.799-3.387-.846-6.35-.846-16.722 0-16.722 21.484 0 10.265 4.022 15.769 4.128 5.397 12.17 5.397 4.658 0 8.15-.952 3.598-.953 6.562-2.329v8.255q-2.858 1.482-6.35 2.223-3.387.847-8.255.847zm54.504-58.844q1.587 0 3.386.212 1.905.106 3.281.423l-1.164 8.573q-1.376-.318-3.07-.53-1.587-.211-3.068-.211-4.34 0-8.15 2.434-3.81 2.329-6.138 6.668-2.222 4.233-2.222 9.948v30.268h-9.314v-56.726h7.62l1.059 10.371h.423q2.752-4.656 7.09-8.043 4.34-3.387 10.267-3.387zm22.013-20.214q2.117 0 3.704 1.482 1.693 1.376 1.693 4.445 0 2.963-1.693 4.445-1.587 1.482-3.704 1.482-2.328 0-3.916-1.482-1.587-1.482-1.587-4.445 0-3.07 1.587-4.445 1.588-1.482 3.916-1.482zm4.55 21.273v56.726h-9.313v-56.726Zm44.98-1.059q10.477 0 16.827 7.303 6.456 7.302 6.456 22.013 0 14.5-6.456 22.013-6.35 7.515-16.933 7.515-6.562 0-10.901-2.435-4.233-2.54-6.667-5.82h-.635q.211 1.799.423 4.55.212 2.752.212 4.763v23.283h-9.314v-82.126h7.62l1.27 7.726h.424q2.54-3.705 6.667-6.245 4.128-2.54 11.007-2.54zm-1.694 7.832q-8.678 0-12.276 4.868-3.493 4.869-3.704 14.817v1.8q0 10.477 3.386 16.192 3.493 5.609 12.806 5.609 5.186 0 8.467-2.858 3.386-2.857 4.974-7.726 1.693-4.974 1.693-11.324 0-9.736-3.81-15.557-3.704-5.821-11.536-5.821zm58.738 43.392q2.116 0 4.339-.318 2.222-.423 3.598-.847v7.091q-1.482.741-4.233 1.164-2.752.53-5.292.53-4.445 0-8.255-1.482-3.704-1.588-6.032-5.398-2.329-3.81-2.329-10.689v-33.02h-8.043v-4.445l8.15-3.704 3.703-12.065h5.504v13.018h16.404v7.196H343.13V500.6q0 5.185 2.434 7.725 2.54 2.435 6.456 2.435z" style="font-size:105.833px;line-height:1.2;font-family:System-ui;-inkscape-font-specification:System-ui;text-align:center;text-anchor:middle;display:inline;fill:#fff;stroke:#61b09a" aria-label="TypeScript" transform="translate(162.277 101.417)"/></g></svg>