<svg width="2000" height="2436.424" viewBox="0 0 529.167 644.637" xml:space="preserve" xmlns="http://www.w3.org/2000/svg"><g style="display:inline;opacity:1"><path style="display:inline;fill:#e7fcff;fill-opacity:1;stroke-width:.264583" d="m102.307-101.417-.197 31.504-206.712 118.917-57.675-34.206v-116.215Z" transform="translate(162.277 101.417)"/><path style="display:inline;fill:#6e77a0;fill-opacity:1;stroke-width:.264583" d="M308.109 44.047 366.89 10.58v-111.998H102.307l-.197 31.504z" transform="translate(162.277 101.417)"/><path style="display:inline;fill:#404d87;fill-opacity:1;stroke-width:.274857" d="m366.89 10.58-63.435 33.467-5.75 235.477 69.185 32.274z" transform="translate(162.277 101.417)"/><path style="display:inline;fill:#171e41;fill-opacity:1;stroke-width:.265;stroke-dasharray:none" d="M366.89 311.798v116.216H102.307l-.197-22.815 200.67-125.675z" transform="translate(162.277 101.417)"/><path style="display:inline;fill:#5cab7e;fill-opacity:1;stroke-width:.264583" d="M-107.547 279.524 102.11 405.199l.197 22.815h-264.584V311.798Z" transform="translate(162.277 101.417)"/><path style="display:inline;fill:#61b09a;fill-opacity:1;stroke-width:.283766" d="m-162.277 14.798 66.342 34.206-3.388 230.52-62.954 32.274z" transform="translate(162.277 101.417)"/><path style="display:inline;fill:#61b09a;stroke-width:.261105" d="M336.18 176.316A233.433 233.433 0 0 1 102.748 409.75a233.433 233.433 0 0 1-233.433-233.433A233.433 233.433 0 0 1 102.748-57.117 233.433 233.433 0 0 1 336.18 176.316Z" transform="translate(162.277 101.417)"/><path style="display:inline;stroke-width:.264583" d="M338.651 163.298A236.542 236.542 0 0 1 102.11 399.84a236.542 236.542 0 0 1-236.542-236.542A236.542 236.542 0 0 1 102.11-73.243 236.542 236.542 0 0 1 338.65 163.298z" transform="translate(162.277 101.417)"/></g><g style="display:inline"><path d="m246.832 9.329-36.783 265.8L99.702 311.79l-110.348-36.662-36.783-265.8Z" style="font-variation-settings:normal;vector-effect:none;fill:#fff;fill-opacity:1;stroke:#61b09a;stroke-width:5;stroke-linecap:butt;stroke-linejoin:miter;stroke-miterlimit:4;stroke-dasharray:none;stroke-dashoffset:0;stroke-opacity:1;-inkscape-stroke:none;stop-color:#000" transform="translate(164.882 104.089)"/><path style="color:#000;font-variation-settings:normal;vector-effect:none;fill:#000;fill-opacity:1;stroke:#61b09a;stroke-width:5;stroke-linecap:butt;stroke-linejoin:miter;stroke-miterlimit:4;stroke-dasharray:none;stroke-dashoffset:0;stroke-opacity:1;-inkscape-stroke:none;stop-color:#000" d="M15.358 68.542V96.04h41.38v110.666l-16.81-8.377-12.357 24.56 56.754 28.284V68.542Zm119.543 0c-12.525 0-22.989 10.43-22.989 22.914v54.993c0 12.485 10.464 22.914 22.99 22.914h20.869l-5.604 39.312-27.802 6.945 6.681 26.638 45.763-11.386 9.016-62.87c1.92-13.538-9.02-26.133-22.738-26.136H139.5V96.04h41.38V68.542Z" transform="translate(164.882 104.089)"/><path d="M-137.735 534.757q-2.54 0-4.445-.423-1.905-.318-3.386-.953v-8.043q1.693.423 3.598.74 1.905.318 4.022.318 2.645 0 4.974-1.058 2.434-1.059 3.916-3.704 1.481-2.646 1.481-7.409v-75.141h9.525v74.4q0 10.901-5.397 16.087-5.398 5.186-14.288 5.186zm59.796-77.787q10.372 0 15.346 4.55 4.974 4.551 4.974 14.5v38.629h-6.773l-1.8-8.044h-.423q-3.704 4.657-7.832 6.88-4.021 2.222-11.218 2.222-7.726 0-12.806-4.022-5.08-4.127-5.08-12.805 0-8.467 6.668-13.018 6.667-4.657 20.531-5.08l9.631-.317v-3.387q0-7.09-3.069-9.842-3.07-2.752-8.678-2.752-4.445 0-8.467 1.376-4.022 1.27-7.514 2.963l-2.857-6.985q3.704-2.01 8.784-3.387 5.08-1.481 10.583-1.481zm2.752 30.268q-10.584.423-14.711 3.387-4.022 2.963-4.022 8.36 0 4.763 2.858 6.985 2.963 2.223 7.514 2.223 7.196 0 11.959-3.916 4.762-4.022 4.762-12.277v-5.08zm47.625 27.41-21.485-56.726h9.949l12.065 33.443q.846 2.329 1.799 5.186.952 2.858 1.693 5.504.741 2.54 1.059 4.339h.423q.423-1.8 1.164-4.445.847-2.646 1.8-5.504 1.058-2.857 1.798-5.08l12.065-33.443h9.949l-21.59 56.727Zm62.758-57.678q10.372 0 15.346 4.55 4.974 4.551 4.974 14.5v38.629h-6.773l-1.8-8.044h-.422q-3.705 4.657-7.832 6.88-4.022 2.222-11.218 2.222-7.726 0-12.806-4.022-5.08-4.127-5.08-12.805 0-8.467 6.667-13.018 6.668-4.657 20.532-5.08l9.63-.317v-3.387q0-7.09-3.068-9.842-3.07-2.752-8.679-2.752-4.445 0-8.466 1.376-4.022 1.27-7.515 2.963l-2.857-6.985q3.704-2.01 8.784-3.387 5.08-1.481 10.583-1.481zm2.752 30.268q-10.583.423-14.71 3.387-4.022 2.963-4.022 8.36 0 4.763 2.857 6.985 2.963 2.223 7.514 2.223 7.197 0 11.96-3.916 4.762-4.022 4.762-12.277v-5.08zm79.27 7.197q0 10.054-7.303 15.663t-19.685 5.609q-6.35 0-11.748-.952-5.397-.953-8.996-2.646v-9.102q3.81 1.693 9.42 3.07 5.715 1.375 11.747 1.375 8.467 0 12.7-3.28 4.34-3.282 4.34-8.89 0-3.705-1.588-6.245t-5.504-4.657q-3.81-2.222-10.689-4.656-9.63-3.493-14.605-8.573-4.868-5.08-4.868-13.864 0-6.032 3.07-10.266 3.068-4.339 8.466-6.667 5.503-2.328 12.594-2.328 6.244 0 11.43 1.164t9.419 3.069l-2.963 8.15q-3.916-1.694-8.573-2.858-4.55-1.165-9.525-1.165-7.09 0-10.689 3.07-3.598 2.963-3.598 7.937 0 3.81 1.587 6.35 1.588 2.54 5.186 4.55 3.598 2.012 9.737 4.34 6.667 2.434 11.218 5.292 4.657 2.751 6.985 6.667 2.434 3.916 2.434 9.843zm36.723 21.272q-7.514 0-13.44-3.07-5.821-3.068-9.208-9.524-3.28-6.456-3.28-16.51 0-10.478 3.492-17.04 3.492-6.56 9.419-9.63 6.032-3.07 13.652-3.07 4.34 0 8.361.953 4.022.847 6.562 2.117l-2.858 7.726q-2.54-.953-5.927-1.8-3.386-.846-6.35-.846-16.721 0-16.721 21.484 0 10.266 4.022 15.77 4.127 5.397 12.17 5.397 4.657 0 8.15-.953 3.598-.952 6.561-2.328v8.255q-2.857 1.482-6.35 2.222-3.387.847-8.255.847zm54.504-58.843q1.588 0 3.387.212 1.905.105 3.28.423l-1.164 8.572q-1.375-.317-3.069-.529-1.587-.211-3.069-.211-4.339 0-8.149 2.434-3.81 2.328-6.138 6.667-2.223 4.233-2.223 9.948v30.269h-9.313v-56.727h7.62l1.058 10.372h.424q2.751-4.657 7.09-8.043 4.34-3.387 10.266-3.387zm22.013-20.214q2.117 0 3.705 1.481 1.693 1.376 1.693 4.445 0 2.964-1.693 4.445-1.588 1.482-3.705 1.482-2.328 0-3.915-1.482-1.588-1.481-1.588-4.445 0-3.069 1.588-4.445 1.587-1.481 3.915-1.481zm4.551 21.272v56.727h-9.313v-56.727zm44.98-1.058q10.477 0 16.827 7.302 6.455 7.303 6.455 22.014 0 14.499-6.455 22.013-6.35 7.514-16.934 7.514-6.561 0-10.9-2.434-4.234-2.54-6.668-5.821h-.635q.212 1.8.423 4.55.212 2.753.212 4.763v23.284h-9.313v-82.127h7.62l1.27 7.726h.423q2.54-3.704 6.668-6.244 4.127-2.54 11.006-2.54zm-1.694 7.832q-8.678 0-12.277 4.868-3.492 4.868-3.704 14.816v1.8q0 10.477 3.387 16.192 3.492 5.61 12.805 5.61 5.186 0 8.467-2.858 3.387-2.858 4.974-7.726 1.694-4.974 1.694-11.324 0-9.737-3.81-15.558-3.705-5.82-11.536-5.82zm58.737 43.391q2.117 0 4.34-.317 2.222-.424 3.598-.847v7.09q-1.482.742-4.234 1.165-2.751.529-5.291.529-4.445 0-8.255-1.482-3.704-1.587-6.033-5.397-2.328-3.81-2.328-10.69v-33.02h-8.043v-4.444l8.149-3.704 3.704-12.065h5.503v13.017h16.404v7.197h-16.404v32.808q0 5.186 2.434 7.726 2.54 2.434 6.456 2.434z" style="font-size:105.833px;line-height:1.2;font-family:System-ui;-inkscape-font-specification:System-ui;text-align:center;text-anchor:middle;fill:#fff;stroke:#61b09a" aria-label="JavaScript" transform="translate(164.882 104.089)"/></g></svg>