<svg width="2000" height="2436.424" viewBox="0 0 529.167 644.637" xml:space="preserve" xmlns="http://www.w3.org/2000/svg"><g style="display:inline;opacity:1"><path style="display:inline;fill:#e7fcff;fill-opacity:1;stroke-width:.264583" d="m102.307-101.417-.197 31.504-206.712 118.917-57.675-34.206v-116.215Z" transform="translate(162.277 101.417)"/><path style="display:inline;fill:#6e77a0;fill-opacity:1;stroke-width:.264583" d="M308.109 44.047 366.89 10.58v-111.998H102.307l-.197 31.504z" transform="translate(162.277 101.417)"/><path style="display:inline;fill:#404d87;fill-opacity:1;stroke-width:.274857" d="m366.89 10.58-63.435 33.467-5.75 235.477 69.185 32.274z" transform="translate(162.277 101.417)"/><path style="display:inline;fill:#171e41;fill-opacity:1;stroke-width:.265;stroke-dasharray:none" d="M366.89 311.798v116.216H102.307l-.197-22.815 200.67-125.675z" transform="translate(162.277 101.417)"/><path style="display:inline;fill:#5cab7e;fill-opacity:1;stroke-width:.264583" d="M-107.547 279.524 102.11 405.199l.197 22.815h-264.584V311.798Z" transform="translate(162.277 101.417)"/><path style="display:inline;fill:#61b09a;fill-opacity:1;stroke-width:.283766" d="m-162.277 14.798 66.342 34.206-3.388 230.52-62.954 32.274z" transform="translate(162.277 101.417)"/><path style="display:inline;fill:#61b09a;stroke-width:.261105" d="M336.18 176.316A233.433 233.433 0 0 1 102.748 409.75a233.433 233.433 0 0 1-233.433-233.433A233.433 233.433 0 0 1 102.748-57.117 233.433 233.433 0 0 1 336.18 176.316Z" transform="translate(162.277 101.417)"/><path style="display:inline;stroke-width:.264583" d="M338.651 163.298A236.542 236.542 0 0 1 102.11 399.84a236.542 236.542 0 0 1-236.542-236.542A236.542 236.542 0 0 1 102.11-73.243 236.542 236.542 0 0 1 338.65 163.298z" transform="translate(162.277 101.417)"/></g><g style="display:inline"><path fill="currentColor" d="M49.044 198.61c2.913 1.807 46.93 10.755 57.686 12.538 3.725.785 1.082 4.622-4.056 7.215-11.591 3.085-67.814-19.753-53.629-19.753m69.412-163.037 43.082 43.758c4.093 4.177 4.033 12.267 1.747 14.59L141.9 76.812l-4.205 25.333-17.884-9.427-28.616 18.068-9.477-38.104-15.377 26.6H42.826c-9.588 0-10.706-12.17-2.002-20.872C56.029 62 73.484 45.271 82.973 35.573c9.538-9.748 26.144-9.465 35.486 0m-43.353-7.83L-33.8 139.179c-36.789 45.566 25.051 40.268 51.552 53.384 9.514 9.722-36.445 16.9-26.931 26.623 9.502 9.723 57.501 18.733 67.027 28.443 9.502 9.723-19.47 20.036-9.956 29.746 9.501 9.735 31.504.516 35.622 22.961 2.926 16.029 39.628 6.884 57.574-6.244 9.514-9.723-18.192-8.813-8.678-18.536 23.637-24.178 45.664-8.776 53.752-33.016 3.995-11.972-34.81-18.45-25.284-28.172 27.362-15.98 121.922-26.378 77.045-71.243L125.06 27.743c-13.804-13.25-36.851-13.398-49.942 0zM200.2 242.54c0 5.532 40.735 9.158 40.735-1.3-5.802-16.79-35.917-15.66-40.735 1.3M16.708 271.918c9.636 8.346 24.546-2.077 29.008-13.718-9.342-12.415-44.336.465-29.008 13.718m178.378-18.02c-12.427 11.161 1.403 22.47 13.656 15.266 2.727-2.764-.093-12.488-13.643-15.266z" style="font-variation-settings:normal;opacity:1;vector-effect:none;fill:#fff;fill-opacity:1;stroke:#61b09a;stroke-width:5;stroke-linecap:butt;stroke-linejoin:miter;stroke-miterlimit:4;stroke-dasharray:none;stroke-dashoffset:0;stroke-opacity:1;-inkscape-stroke:none;stop-color:#000;stop-opacity:1" transform="translate(162.277 101.417)"/><path d="M-87.293 517.32h-27.305v-5.503l8.89-2.01v-60.432l-8.89-2.116v-5.504h27.305v5.504l-8.89 2.116v60.431l8.89 2.01zm40.64-57.785q10.16 0 15.346 4.975 5.185 4.868 5.185 15.874v36.936h-9.207v-36.3q0-13.653-12.7-13.653-9.42 0-13.017 5.292-3.599 5.291-3.599 15.24v29.421h-9.313v-56.726h7.514l1.376 7.726h.53q2.75-4.445 7.62-6.562 4.867-2.223 10.265-2.223zM.654 478.903q0 1.693-.211 4.445-.106 2.751-.212 4.762h.423q.635-.846 1.905-2.434l2.54-3.175q1.376-1.693 2.329-2.752l18.097-19.155h10.9L13.46 484.829l24.553 32.491H26.795L7.11 490.862l-6.456 5.61v20.848h-9.207v-80.433H.654zm84.243 22.754q0 8.255-6.138 12.488-6.138 4.234-16.51 4.234-5.927 0-10.266-.953-4.233-.952-7.514-2.646v-8.466q3.387 1.693 8.15 3.175 4.868 1.375 9.842 1.375 7.09 0 10.266-2.222 3.175-2.328 3.175-6.138 0-2.117-1.165-3.81-1.164-1.694-4.233-3.387-2.963-1.693-8.572-3.81-5.504-2.117-9.42-4.233-3.915-2.117-6.032-5.08-2.117-2.964-2.117-7.62 0-7.197 5.821-11.113 5.927-3.916 15.452-3.916 5.186 0 9.63 1.059 4.551.952 8.467 2.751l-3.175 7.409q-3.598-1.482-7.514-2.54-3.916-1.059-8.043-1.059-5.715 0-8.784 1.905-2.964 1.8-2.964 4.974 0 2.329 1.376 4.022 1.376 1.588 4.55 3.175 3.282 1.482 8.68 3.598 5.397 2.011 9.207 4.128 3.81 2.117 5.82 5.186 2.011 2.963 2.011 7.514zm36.513 16.722q-7.514 0-13.441-3.07-5.82-3.069-9.208-9.525-3.28-6.455-3.28-16.51 0-10.477 3.492-17.039 3.493-6.561 9.42-9.63 6.032-3.07 13.652-3.07 4.339 0 8.36.953 4.022.847 6.562 2.117l-2.857 7.725q-2.54-.952-5.927-1.799-3.387-.846-6.35-.846-16.722 0-16.722 21.484 0 10.265 4.022 15.769 4.128 5.397 12.17 5.397 4.658 0 8.15-.952 3.598-.953 6.562-2.329v8.255q-2.858 1.482-6.35 2.223-3.387.847-8.255.847zm49.53-58.738q10.371 0 15.345 4.551 4.974 4.55 4.974 14.5v38.628h-6.773l-1.799-8.043h-.423q-3.705 4.657-7.832 6.879-4.022 2.223-11.218 2.223-7.726 0-12.806-4.022-5.08-4.128-5.08-12.806 0-8.467 6.667-13.017 6.668-4.657 20.532-5.08l9.63-.318v-3.387q0-7.09-3.068-9.842-3.07-2.752-8.679-2.752-4.445 0-8.466 1.376-4.022 1.27-7.514 2.964l-2.858-6.985q3.704-2.011 8.784-3.387 5.08-1.482 10.584-1.482zm2.751 30.268q-10.583.424-14.71 3.387-4.022 2.963-4.022 8.36 0 4.763 2.857 6.986 2.964 2.222 7.514 2.222 7.197 0 11.96-3.915 4.762-4.022 4.762-12.277v-5.08zm62.124-30.374q10.478 0 16.828 7.303 6.455 7.302 6.455 22.013 0 14.5-6.455 22.013-6.35 7.515-16.934 7.515-6.561 0-10.9-2.435-4.234-2.54-6.668-5.82h-.635q.212 1.799.423 4.55.212 2.752.212 4.763v23.283h-9.313v-82.126h7.62l1.27 7.726h.423q2.54-3.705 6.668-6.245 4.127-2.54 11.006-2.54zm-1.693 7.832q-8.678 0-12.277 4.868-3.492 4.869-3.704 14.817v1.8q0 10.477 3.387 16.192 3.492 5.609 12.806 5.609 5.185 0 8.466-2.858 3.387-2.857 4.974-7.726 1.694-4.974 1.694-11.324 0-9.736-3.81-15.557-3.704-5.821-11.536-5.821zm61.7-7.832q7.303 0 12.489 3.175 5.291 3.175 8.043 8.996 2.858 5.715 2.858 13.441v5.61H280.37q.212 9.63 4.868 14.71 4.763 4.974 13.23 4.974 5.397 0 9.524-.952 4.234-1.059 8.679-2.964v8.15q-4.34 1.904-8.573 2.751-4.233.953-10.054.953-8.043 0-14.287-3.281-6.139-3.281-9.631-9.737-3.387-6.562-3.387-15.98 0-9.314 3.07-15.981 3.174-6.668 8.783-10.266 5.715-3.599 13.23-3.599zm-.105 7.62q-6.668 0-10.584 4.34-3.81 4.233-4.55 11.853h28.892q-.106-7.197-3.387-11.642-3.28-4.55-10.371-4.55z" style="font-size:105.833px;line-height:1.2;font-family:System-ui;-inkscape-font-specification:System-ui;text-align:center;text-anchor:middle;fill:#fff;stroke:#61b09a" aria-label="Inkscape" transform="translate(162.277 101.417)"/></g></svg>