<svg width="2000" height="2416.424" viewBox="0 0 529.167 639.346" xml:space="preserve" xmlns="http://www.w3.org/2000/svg"><g style="display:inline;opacity:1"><path style="display:inline;fill:#e7fcff;fill-opacity:1;stroke-width:.264583" d="m102.307-101.417-.197 31.504-206.712 118.917-57.675-34.206v-116.215Z" transform="translate(162.277 101.417)"/><path style="display:inline;fill:#6e77a0;fill-opacity:1;stroke-width:.264583" d="M308.109 44.047 366.89 10.58v-111.998H102.307l-.197 31.504z" transform="translate(162.277 101.417)"/><path style="display:inline;fill:#404d87;fill-opacity:1;stroke-width:.274857" d="m366.89 10.58-63.435 33.467-5.75 235.477 69.185 32.274z" transform="translate(162.277 101.417)"/><path style="display:inline;fill:#171e41;fill-opacity:1;stroke-width:.265;stroke-dasharray:none" d="M366.89 311.798v116.216H102.307l-.197-22.815 200.67-125.675z" transform="translate(162.277 101.417)"/><path style="display:inline;fill:#5cab7e;fill-opacity:1;stroke-width:.264583" d="M-107.547 279.524 102.11 405.199l.197 22.815h-264.584V311.798Z" transform="translate(162.277 101.417)"/><path style="display:inline;fill:#61b09a;fill-opacity:1;stroke-width:.283766" d="m-162.277 14.798 66.342 34.206-3.388 230.52-62.954 32.274z" transform="translate(162.277 101.417)"/><path style="display:inline;fill:#61b09a;stroke-width:.261105" d="M336.18 176.316A233.433 233.433 0 0 1 102.748 409.75a233.433 233.433 0 0 1-233.433-233.433A233.433 233.433 0 0 1 102.748-57.117 233.433 233.433 0 0 1 336.18 176.316Z" transform="translate(162.277 101.417)"/><path style="display:inline;stroke-width:.264583" d="M338.651 163.298A236.542 236.542 0 0 1 102.11 399.84a236.542 236.542 0 0 1-236.542-236.542A236.542 236.542 0 0 1 102.11-73.243 236.542 236.542 0 0 1 338.65 163.298z" transform="translate(162.277 101.417)"/></g><g style="display:inline"><path fill="currentColor" fill-rule="evenodd" d="M-45.193 163.272a147.5 147.5 0 1 1 230.06 122.248L51.29 98.57a9.833 9.833 0 0 0-17.818 5.7v147.5H53.14V134.95l114.656 160.52a147.5 147.5 0 0 1-212.99-132.2m196.667 49.167v-118h19.666v118Z" clip-rule="evenodd" style="font-variation-settings:normal;display:inline;opacity:1;vector-effect:none;fill:#fff;fill-opacity:1;stroke:#61b09a;stroke-width:5;stroke-linecap:butt;stroke-linejoin:miter;stroke-miterlimit:4;stroke-dasharray:none;stroke-dashoffset:0;stroke-opacity:1;-inkscape-stroke:none;stop-color:#000;stop-opacity:1" transform="translate(162.277 101.417)"/><path d="M10.232 517.32H-.88l-40.429-62.759h-.423q.212 3.704.53 9.208.317 5.503.317 11.324v42.227h-8.784v-75.565h11.006L1.66 504.303h.423l-.317-5.08q-.106-3.387-.318-7.409-.106-4.021-.106-7.408v-42.65h8.89zm41.17-57.785q7.302 0 12.488 3.175 5.291 3.175 8.043 8.996 2.857 5.715 2.857 13.441v5.61H35.95q.211 9.63 4.868 14.71 4.762 4.974 13.23 4.974 5.397 0 9.524-.952 4.233-1.059 8.678-2.964v8.15q-4.339 1.904-8.572 2.751-4.233.953-10.054.953-8.044 0-14.288-3.281-6.138-3.281-9.63-9.737-3.387-6.562-3.387-15.98 0-9.314 3.069-15.981 3.175-6.668 8.784-10.266 5.715-3.599 13.23-3.599zm-.107 7.62q-6.667 0-10.583 4.34-3.81 4.233-4.55 11.853h28.892q-.106-7.197-3.387-11.642-3.28-4.55-10.372-4.55zm49.213 21.167-19.58-27.728h10.584l14.605 21.378 14.499-21.378h10.477l-19.579 27.728 20.638 28.998h-10.584l-15.451-22.648-15.664 22.648H79.976Zm61.489 22.437q2.116 0 4.339-.318 2.222-.423 3.598-.847v7.091q-1.482.741-4.233 1.164-2.752.53-5.292.53-4.445 0-8.255-1.482-3.704-1.588-6.032-5.398-2.329-3.81-2.329-10.689v-33.02h-8.043v-4.445l8.15-3.704 3.703-12.065h5.504v13.018h16.404v7.196h-16.404V500.6q0 5.185 2.434 7.725 2.54 2.435 6.456 2.435zm9.842 26.67q-2.54 0-4.445-.424-1.905-.317-3.387-.952v-8.044q1.694.424 3.599.741 1.905.318 4.021.318 2.646 0 4.974-1.059 2.435-1.058 3.916-3.704Q182 521.66 182 516.897v-75.142h9.525v74.401q0 10.9-5.398 16.087-5.397 5.185-14.287 5.185zm82.444-40.323q0 10.054-7.303 15.663-7.302 5.61-19.684 5.61-6.35 0-11.748-.953-5.397-.952-8.996-2.646v-9.101q3.81 1.693 9.42 3.069 5.714 1.376 11.747 1.376 8.467 0 12.7-3.281 4.339-3.281 4.339-8.89 0-3.704-1.588-6.244-1.587-2.54-5.503-4.657-3.81-2.223-10.689-4.657-9.63-3.492-14.605-8.572-4.868-5.08-4.868-13.864 0-6.033 3.069-10.266 3.07-4.34 8.467-6.668 5.503-2.328 12.594-2.328 6.244 0 11.43 1.164 5.185 1.164 9.419 3.07l-2.964 8.149q-3.915-1.694-8.572-2.858-4.55-1.164-9.525-1.164-7.09 0-10.69 3.07-3.597 2.962-3.597 7.937 0 3.81 1.587 6.35 1.588 2.54 5.186 4.55 3.598 2.011 9.737 4.34 6.667 2.434 11.218 5.291 4.656 2.752 6.985 6.668 2.434 3.915 2.434 9.842z" style="font-size:105.833px;line-height:1.2;font-family:System-ui;-inkscape-font-specification:System-ui;text-align:center;text-anchor:middle;fill:#fff;stroke:#61b09a" aria-label="NextJS" transform="translate(162.277 101.417)"/></g></svg>