<svg width="2000" height="2344.425" viewBox="0 0 529.167 620.296" xml:space="preserve" xmlns="http://www.w3.org/2000/svg"><g style="display:inline;opacity:1"><path style="display:inline;fill:#e7fcff;fill-opacity:1;stroke-width:.264583" d="m102.307-101.417-.197 31.504-206.712 118.917-57.675-34.206v-116.215Z" transform="translate(162.277 101.417)"/><path style="display:inline;fill:#6e77a0;fill-opacity:1;stroke-width:.264583" d="M308.109 44.047 366.89 10.58v-111.998H102.307l-.197 31.504z" transform="translate(162.277 101.417)"/><path style="display:inline;fill:#404d87;fill-opacity:1;stroke-width:.274857" d="m366.89 10.58-63.435 33.467-5.75 235.477 69.185 32.274z" transform="translate(162.277 101.417)"/><path style="display:inline;fill:#171e41;fill-opacity:1;stroke-width:.265;stroke-dasharray:none" d="M366.89 311.798v116.216H102.307l-.197-22.815 200.67-125.675z" transform="translate(162.277 101.417)"/><path style="display:inline;fill:#5cab7e;fill-opacity:1;stroke-width:.264583" d="M-107.547 279.524 102.11 405.199l.197 22.815h-264.584V311.798Z" transform="translate(162.277 101.417)"/><path style="display:inline;fill:#61b09a;fill-opacity:1;stroke-width:.283766" d="m-162.277 14.798 66.342 34.206-3.388 230.52-62.954 32.274z" transform="translate(162.277 101.417)"/><path style="display:inline;fill:#61b09a;stroke-width:.261105" d="M336.18 176.316A233.433 233.433 0 0 1 102.748 409.75a233.433 233.433 0 0 1-233.433-233.433A233.433 233.433 0 0 1 102.748-57.117 233.433 233.433 0 0 1 336.18 176.316Z" transform="translate(162.277 101.417)"/><path style="display:inline;stroke-width:.264583" d="M338.651 163.298A236.542 236.542 0 0 1 102.11 399.84a236.542 236.542 0 0 1-236.542-236.542A236.542 236.542 0 0 1 102.11-73.243 236.542 236.542 0 0 1 338.65 163.298z" transform="translate(162.277 101.417)"/></g><g style="display:inline"><path fill="currentColor" d="M244.633 44.788c-11.81 14.833-31.308 79.605-140.828 82.49-52.29 1.39-78.168-58.143-78.168-58.143l-4.13 95.498c-10.224-12.768-23.914-20.936-37.069-21.37a27.472 27.472 0 0 0-17.673 5.43c-8.159 6.15-12.049 16.52-11.957 28.044.105 11.478 4.084 24.154 11.957 35.576 7.827 11.431 18.106 19.498 28.57 23.24A34.921 34.921 0 0 0 11.9 237.47c74.139 59.102 272.29 104.293 232.732-192.683M58.088 124.106c15.562 0 28.477 11.523 32.174 26.984 5.955-14.65 19.83-24.92 36.01-24.92 21.609 0 39.088 18.291 39.088 40.813 0 22.568-17.48 41.005-39.089 41.005-18.825 0-34.525-14.022-38.267-32.505-5.375 12.002-16.66 20.456-29.916 20.456-11.238 0-21.074-6.093-27.085-15.312a60.347 60.347 0 0 0-3.55-6.96 39.033 39.033 0 0 1-2.498-13.681c0-19.682 14.741-35.917 33.133-35.917zm0 4.416c-15.746 0-28.615 13.976-28.615 31.445 0 17.525 12.87 31.446 28.615 31.446 2.637 0 5.135-.526 7.587-1.244-11.09-.432-19.83-9.938-19.876-21.563.035-11.957 9.265-21.61 20.595-21.61 9.652 0 18.005 7.007 20.116 16.853.14-1.3.348-2.543.348-3.89 0-17.48-12.961-31.446-28.763-31.446zm68.183 1.585c-19.396 0-35.151 16.419-35.151 36.875 0 20.503 15.745 36.968 35.151 36.968a33.833 33.833 0 0 0 19.636-6.287 25.407 25.407 0 0 1-10.564 2.352c-14.548 0-26.357-12.39-26.357-27.703 0-15.266 11.81-27.657 26.357-27.657 12.722 0 23.674 9.505 25.979 22.66v-.279c0-20.502-15.7-36.875-35.05-36.875zM-15.663 147.2c12.768.432 27.131 9.458 36.968 23.812 7.485 10.85 11.237 22.9 11.33 33.51.104 10.566-3.457 19.545-10.418 24.78-6.914 5.237-16.087 5.91-25.592 2.5-9.458-3.367-19.203-10.851-26.651-21.656-7.44-10.85-11.192-22.955-11.284-33.566-.105-10.564 3.456-19.498 10.37-24.78a23.942 23.941 0 0 1 15.267-4.61zm143.714 3.024c-6.823 0-12.39 5.808-12.345 13.008 0 7.154 5.522 12.962 12.345 12.962 6.822 0 12.343-5.808 12.343-12.962.035-7.2-5.521-13.008-12.343-13.008m-69.382 2.693c-4.517 0-8.113 3.845-8.159 8.546 0 4.702 3.65 8.546 8.159 8.546 4.508 0 8.159-3.844 8.113-8.546 0-4.701-3.651-8.546-8.113-8.546m-78.84 2.739c-7.588 0-13.737 7.734-13.783 17.285 0 9.606 6.195 17.332 13.783 17.332 7.587 0 13.735-7.78 13.735-17.332 0-9.505-6.148-17.285-13.735-17.285m174.247 49.164s18.29 5.329 24.725 14.068c6.435 8.694 2.352 14.068.672 25.204-2.453-6.48-4.996-11.57-7.633-14.547-9.938 15.46-38.12 22.808-75.964 19.157 17-.913 30.155-3.55 40.572-7.2-17.193 1.105-39.466-3.31-65.924-13.11 52.382 10.999 79.08.767 94.688-11.855-4.13-5.614-11.137-11.717-11.137-11.717" style="font-variation-settings:normal;opacity:1;vector-effect:none;fill:#fff;fill-opacity:1;stroke:#61b09a;stroke-width:5;stroke-linecap:butt;stroke-linejoin:miter;stroke-miterlimit:4;stroke-dasharray:none;stroke-dashoffset:0;stroke-opacity:1;-inkscape-stroke:none;stop-color:#000;stop-opacity:1" transform="translate(162.277 101.417)"/><path d="M8.38 477.421h26.14v37.042q-6.138 2.01-12.382 2.963-6.244.953-14.181.953-11.748 0-19.791-4.657-8.043-4.763-12.277-13.44-4.127-8.785-4.127-20.744 0-11.853 4.656-20.532 4.657-8.678 13.335-13.44 8.785-4.869 21.167-4.869 6.35 0 11.96 1.164 5.714 1.164 10.582 3.281l-3.598 8.255q-4.022-1.8-9.102-3.07-4.974-1.27-10.371-1.27-13.547 0-21.167 8.15-7.514 8.15-7.514 22.33 0 8.997 2.858 15.982 2.963 6.879 9.207 10.795 6.244 3.81 16.404 3.81 4.974 0 8.467-.53 3.492-.529 6.35-1.27v-22.436H8.38Zm65.51 39.9H46.587v-5.504l8.89-2.01v-60.432l-8.89-2.116v-5.504H73.89v5.504L65 449.375v60.431l8.89 2.01zm47.943 0-24.87-66.252h-.424q.318 3.28.53 8.89.21 5.503.21 11.536v45.825h-8.783v-75.565h14.076l23.283 61.913h.423l23.707-61.913h13.97v75.565h-9.42v-46.46q0-5.504.212-10.901.318-5.398.53-8.784h-.424l-25.188 66.145zm82.656-75.566q14.816 0 21.59 5.821 6.773 5.821 6.773 16.404 0 6.245-2.858 11.748-2.751 5.397-9.419 8.784-6.561 3.387-17.886 3.387h-8.678v29.421h-9.525v-75.565zm-.847 8.15h-9.63v29.844h7.62q10.794 0 16.086-3.492 5.291-3.492 5.291-11.853 0-7.303-4.656-10.901-4.657-3.598-14.711-3.598z" style="font-size:105.833px;line-height:1.2;font-family:System-ui;-inkscape-font-specification:System-ui;text-align:center;text-anchor:middle;fill:#fff;stroke:#61b09a" aria-label="GIMP" transform="translate(162.277 101.417)"/></g></svg>