<svg width="2000" height="2340.425" viewBox="0 0 529.167 619.237" xml:space="preserve" xmlns="http://www.w3.org/2000/svg"><g style="display:inline;opacity:1"><path style="display:inline;fill:#e7fcff;fill-opacity:1;stroke-width:.264583" d="m102.307-101.417-.197 31.504-206.712 118.917-57.675-34.206v-116.215Z" transform="translate(162.277 101.417)"/><path style="display:inline;fill:#6e77a0;fill-opacity:1;stroke-width:.264583" d="M308.109 44.047 366.89 10.58v-111.998H102.307l-.197 31.504z" transform="translate(162.277 101.417)"/><path style="display:inline;fill:#404d87;fill-opacity:1;stroke-width:.274857" d="m366.89 10.58-63.435 33.467-5.75 235.477 69.185 32.274z" transform="translate(162.277 101.417)"/><path style="display:inline;fill:#171e41;fill-opacity:1;stroke-width:.265;stroke-dasharray:none" d="M366.89 311.798v116.216H102.307l-.197-22.815 200.67-125.675z" transform="translate(162.277 101.417)"/><path style="display:inline;fill:#5cab7e;fill-opacity:1;stroke-width:.264583" d="M-107.547 279.524 102.11 405.199l.197 22.815h-264.584V311.798Z" transform="translate(162.277 101.417)"/><path style="display:inline;fill:#61b09a;fill-opacity:1;stroke-width:.283766" d="m-162.277 14.798 66.342 34.206-3.388 230.52-62.954 32.274z" transform="translate(162.277 101.417)"/><path style="display:inline;fill:#61b09a;stroke-width:.261105" d="M336.18 176.316A233.433 233.433 0 0 1 102.748 409.75a233.433 233.433 0 0 1-233.433-233.433A233.433 233.433 0 0 1 102.748-57.117 233.433 233.433 0 0 1 336.18 176.316Z" transform="translate(162.277 101.417)"/><path style="display:inline;stroke-width:.264583" d="M338.651 163.298A236.542 236.542 0 0 1 102.11 399.84a236.542 236.542 0 0 1-236.542-236.542A236.542 236.542 0 0 1 102.11-73.243 236.542 236.542 0 0 1 338.65 163.298z" transform="translate(162.277 101.417)"/></g><g style="display:inline"><path fill="currentColor" d="m-44.962-.398 25.822 291.68 121.45 35.608 122.187-35.592L249.583-.398ZM184.93 98.574H54.447l2.814 32.99h125.95l-10.243 107.433-69.48 22.6-70.053-23.81-4.712-47.981h33.12l2.615 23.09 39.273 13.337 38.389-12.486 4.86-49.175H27.299L18.1 65.567H188.48Z" style="fill:#fff;fill-opacity:1;stroke:#61b09a;stroke-width:5;stroke-dasharray:none;stroke-opacity:1" transform="translate(162.277 101.417)"/><path d="M22.191 517.32h-9.525v-35.242h-38.735v35.242h-9.524v-75.565h9.524v31.962h38.735v-31.962h9.525zm44.556 0h-9.525v-67.204h-23.6v-8.36h56.62v8.36H66.747Zm68.262 0-24.87-66.251h-.424q.318 3.28.53 8.89.21 5.503.21 11.536v45.825h-8.783v-75.565h14.076l23.283 61.913h.423l23.707-61.913h13.97v75.565h-9.42v-46.46q0-5.504.212-10.901.318-5.398.53-8.784h-.424l-25.188 66.145zm62.653 0v-75.565h9.525v67.099h33.02v8.466z" style="font-size:105.833px;line-height:1.2;font-family:System-ui;-inkscape-font-specification:System-ui;text-align:center;text-anchor:middle;fill:#fff;stroke:#61b09a" aria-label="HTML" transform="translate(162.277 101.417)"/></g></svg>